Coordinates
version=1
nRows=10
nColumns=33
inDegrees=yes

Units are S.I. units (second, meters, Newtons, ...)
Angles are in degrees.

endheader
time	ground_thorax_rot_x	ground_thorax_rot_y	ground_thorax_rot_z	ground_thorax_tx	ground_thorax_ty	ground_thorax_tz	clav_prot_r	clav_elev_r	scapula_abduction_r	scapula_elevation_r	scapula_upward_rot_r	scapula_winging_r	shoulder_elv_r	plane_of_elev_r	axial_rot_r	elbow_flexion_r	pro_sup_r	wrist_flex_r	wrist_dev_r	clav_prot_l	clav_elev_l	scapula_abduction_l	scapula_elevation_l	scapula_upward_rot_l	scapula_winging_l	shoulder_elv_l	plane_of_elev_l	axial_rot_l	elbow_flexion_l	pro_sup_l	wrist_flex_l	wrist_dev_l
      3.06000000	     37.97222652	      5.27891935	     18.82068628	   -100.52683406	    806.76501406	      0.41915448	     15.88853676	     39.28316871	     38.59094459	     45.00000000	    -38.88804787	  -3680.30573482	  -2095.84903367	     31.33123724	     65.74161849	    371.10427831	     24.37806964	     17.51144897	      8.98836592	      9.74860267	    -45.00000000	    -36.75488806	     45.00000000	    -42.00597696	   2970.77964281	  -2808.81887174	     19.20485543	    -46.70935364	   2166.19096253	     14.13669611	     11.33779272	    -18.97633995
      3.07000000	     37.98650025	      4.98418387	     18.66448098	   -106.50381593	    809.01188008	     -0.17007750	     15.66978915	     38.95231164	     38.54405364	     45.00000000	    -39.58507538	  -3680.47688576	  -2095.51159427	     31.35296795	     65.16731644	    371.32520862	     27.22121046	     17.69490707	      8.77300033	      9.49578143	    -45.00000000	    -36.55190327	     45.00000000	    -42.64889879	   2971.16629046	  -2808.52018698	     19.39015754	    -46.07015184	   2166.29742849	     14.64292339	     11.73713857	    -19.12085879
      3.08000000	     37.92504621	      5.02751502	     18.81854805	   -112.57008736	    811.46498313	     -0.74645423	     15.51028654	     38.77961991	     38.36029686	     45.00000000	    -40.20925147	  -3680.89948958	  -2095.27384741	     31.36089302	     65.84366256	    371.68338660	     30.01320714	     17.83918902	      8.54425836	      9.76114268	    -45.00000000	    -36.48563829	     45.00000000	    -43.26993608	   2971.69598862	  -2808.11058116	     19.20922303	    -46.97201802	   2166.66689126	     15.49146579	     11.31309021	    -19.30542245
      3.09000000	     37.83872131	      4.96045807	     18.82259925	   -118.68166151	    814.12093712	     -1.30511007	     15.39153120	     38.64533414	     38.13004755	     45.00000000	    -40.79662551	  -3681.20393167	  -2095.02086339	     31.39919569	     66.20480776	    371.97098493	     32.75197537	     17.96126364	      8.27145813	      9.93433189	    -45.00000000	    -36.39766342	     45.00000000	    -43.74065418	   2972.26470966	  -2807.74302034	     19.18132886	    -47.56927722	   2166.91791862	     16.43186730	     11.18790587	    -19.51855962
      3.10000000	     37.83220127	      4.84546487	     18.72819741	   -124.80240725	    816.97313907	     -1.84194227	     15.31311870	     38.45458015	     37.87810474	     45.00000000	    -41.25331131	  -3681.54247143	  -2094.68345516	     31.43734987	     66.54761638	    372.38695378	     35.54109635	     18.12071190	      8.02201182	     10.13866625	    -45.00000000	    -36.33744956	     45.00000000	    -44.15723991	   2972.78349011	  -2807.44342159	     19.15425301	    -47.99469431	   2167.15810935	     17.44532076	     11.09803908	    -19.79179268
      3.11000000	     37.79345160	      4.81569020	     18.69398738	   -130.89018468	    820.00972454	     -2.35272792	     15.16646947	     38.34250074	     37.68327129	     45.00000000	    -41.72038306	  -3681.96685839	  -2094.47262056	     31.44654904	     67.09895325	    372.71102163	     38.22256342	     18.20043294	      7.75807593	     10.37208082	    -45.00000000	    -36.24187595	     45.00000000	    -44.64449083	   2973.28427727	  -2807.09385932	     19.05679181	    -48.71101105	   2167.42505491	     18.61426665	     10.78492789	    -20.01243886
      3.12000000	     37.80112958	      4.75007578	     18.68990111	   -136.90915787	    823.21767559	     -2.83415482	     15.00378512	     38.08130138	     37.47896584	     45.00000000	    -42.25139761	  -3682.48344437	  -2094.19597655	     31.69447152	     68.35571349	    373.06518275	     40.59086593	     18.29638448	      7.57851960	     10.59308529	    -45.00000000	    -36.09346015	     45.00000000	    -45.00000000	   2973.89094948	  -2806.79460418	     18.90958038	    -50.03416988	   2167.71602906	     19.81386197	     10.12675307	    -20.13185250
      3.13000000	     37.77987975	      4.48000855	     18.22166275	   -142.82437459	    826.58318968	     -3.28345599	     14.84904649	     38.04737888	     37.29804050	     45.00000000	    -42.39193003	  -3682.72626899	  -2094.00450562	     31.57008965	     68.17454150	    373.38099171	     42.92993531	     18.39633957	      7.37882992	     10.71117556	    -45.00000000	    -36.31948593	     45.00000000	    -45.00000000	   2974.40761206	  -2806.51481401	     18.87186934	    -50.13595486	   2168.01476227	     21.01669968	     10.11835234	    -20.44523892
      3.14000000	     37.80309201	      4.23602629	     17.87902631	   -148.60253570	    830.08400099	     -3.69824514	     14.75956291	     37.98379122	     37.14324089	     45.00000000	    -42.56148110	  -3683.07234254	  -2093.77673784	     31.57430542	     68.58700608	    373.67590347	     45.16814393	     18.47222046	      7.20504624	     10.88126252	    -45.00000000	    -36.29911663	     45.00000000	    -45.00000000	   2974.92475543	  -2806.26146193	     18.76775764	    -50.78086828	   2168.24614942	     22.31569456	      9.92939920	    -20.68824368
      3.15000000	     37.68576106	      4.67441385	     18.40307574	   -154.21628978	    833.69842597	     -4.07689392	     14.87802933	     37.63261092	     37.01856250	     45.00000000	    -42.01194374	  -3684.01768081	  -2094.25802899	     31.10176027	     72.05140138	    373.77646246	     46.89375750	     18.04694129	      6.44749170	     10.85205256	    -45.00000000	    -35.89369648	     45.00000000	    -45.00000000	   2975.82579339	  -2805.62171216	     18.30609866	    -55.00813967	   2168.73369289	     23.88571522	      9.81320228	    -20.99229343
